<mxfile host="app.diagrams.net" agent="Mozilla/5.0 (Macintosh; Intel Mac OS X 10_15_7) AppleWebKit/537.36 (KHTML, like Gecko) Chrome/134.0.0.0 Safari/537.36" version="26.1.1">
  <diagram name="第 1 页" id="hPxcqX9Ph2NG2lmnISUD">
    <mxGraphModel dx="1595" dy="888" grid="1" gridSize="11" guides="1" tooltips="1" connect="1" arrows="1" fold="1" page="1" pageScale="1" pageWidth="827" pageHeight="1169" math="0" shadow="0">
      <root>
        <mxCell id="0" />
        <mxCell id="1" parent="0" />
        <mxCell id="4EuCsDZ0P0MKHvK0WwLL-10" value="" style="group" vertex="1" connectable="0" parent="1">
          <mxGeometry x="40" y="380" width="300" height="140" as="geometry" />
        </mxCell>
        <mxCell id="4EuCsDZ0P0MKHvK0WwLL-8" value="" style="group;fillColor=#dae8fc;strokeColor=#6c8ebf;container=0;" vertex="1" connectable="0" parent="4EuCsDZ0P0MKHvK0WwLL-10">
          <mxGeometry y="40" width="300" height="100" as="geometry" />
        </mxCell>
        <mxCell id="4EuCsDZ0P0MKHvK0WwLL-9" value="RRID=01" style="text;html=1;align=center;verticalAlign=middle;whiteSpace=wrap;rounded=0;fontSize=16;container=0;" vertex="1" parent="4EuCsDZ0P0MKHvK0WwLL-10">
          <mxGeometry width="80" height="40" as="geometry" />
        </mxCell>
        <mxCell id="4EuCsDZ0P0MKHvK0WwLL-7" value="" style="rounded=0;whiteSpace=wrap;html=1;fillColor=#f5f5f5;strokeColor=#666666;fontColor=#333333;container=0;" vertex="1" parent="4EuCsDZ0P0MKHvK0WwLL-10">
          <mxGeometry y="40" width="300" height="100" as="geometry" />
        </mxCell>
        <mxCell id="4EuCsDZ0P0MKHvK0WwLL-32" style="edgeStyle=orthogonalEdgeStyle;rounded=0;orthogonalLoop=1;jettySize=auto;html=1;exitX=0.5;exitY=1;exitDx=0;exitDy=0;" edge="1" parent="4EuCsDZ0P0MKHvK0WwLL-10" source="4EuCsDZ0P0MKHvK0WwLL-3">
          <mxGeometry relative="1" as="geometry">
            <mxPoint x="80" y="180" as="targetPoint" />
          </mxGeometry>
        </mxCell>
        <mxCell id="4EuCsDZ0P0MKHvK0WwLL-3" value="&lt;font style=&quot;font-size: 18px;&quot;&gt;CPU0&lt;/font&gt;" style="rounded=1;whiteSpace=wrap;html=1;fillColor=#d5e8d4;strokeColor=#82b366;container=0;" vertex="1" parent="4EuCsDZ0P0MKHvK0WwLL-10">
          <mxGeometry x="20" y="60" width="120" height="60" as="geometry" />
        </mxCell>
        <mxCell id="4EuCsDZ0P0MKHvK0WwLL-5" value="&lt;font style=&quot;font-size: 18px;&quot;&gt;CPU1&lt;/font&gt;" style="rounded=1;whiteSpace=wrap;html=1;fillColor=#d5e8d4;strokeColor=#82b366;container=0;" vertex="1" parent="4EuCsDZ0P0MKHvK0WwLL-10">
          <mxGeometry x="160" y="60" width="120" height="60" as="geometry" />
        </mxCell>
        <mxCell id="4EuCsDZ0P0MKHvK0WwLL-19" value="" style="group" vertex="1" connectable="0" parent="1">
          <mxGeometry x="390" y="350" width="90" height="70" as="geometry" />
        </mxCell>
        <mxCell id="4EuCsDZ0P0MKHvK0WwLL-14" value="RRID=02" style="text;html=1;align=center;verticalAlign=middle;whiteSpace=wrap;rounded=0;" vertex="1" parent="4EuCsDZ0P0MKHvK0WwLL-19">
          <mxGeometry width="60" height="30" as="geometry" />
        </mxCell>
        <mxCell id="4EuCsDZ0P0MKHvK0WwLL-18" value="&lt;font style=&quot;font-size: 14px;&quot;&gt;正常设备0&lt;/font&gt;" style="rounded=1;whiteSpace=wrap;html=1;fillColor=#fff2cc;strokeColor=#d6b656;" vertex="1" parent="4EuCsDZ0P0MKHvK0WwLL-19">
          <mxGeometry y="30" width="90" height="40" as="geometry" />
        </mxCell>
        <mxCell id="4EuCsDZ0P0MKHvK0WwLL-20" value="" style="group" vertex="1" connectable="0" parent="1">
          <mxGeometry x="510" y="350" width="90" height="70" as="geometry" />
        </mxCell>
        <mxCell id="4EuCsDZ0P0MKHvK0WwLL-21" value="RRID=03" style="text;html=1;align=center;verticalAlign=middle;whiteSpace=wrap;rounded=0;" vertex="1" parent="4EuCsDZ0P0MKHvK0WwLL-20">
          <mxGeometry width="60" height="30" as="geometry" />
        </mxCell>
        <mxCell id="4EuCsDZ0P0MKHvK0WwLL-22" value="&lt;span style=&quot;font-size: 14px;&quot;&gt;正常设备1&lt;/span&gt;" style="rounded=1;whiteSpace=wrap;html=1;fillColor=#fff2cc;strokeColor=#d6b656;" vertex="1" parent="4EuCsDZ0P0MKHvK0WwLL-20">
          <mxGeometry y="30" width="90" height="40" as="geometry" />
        </mxCell>
        <mxCell id="4EuCsDZ0P0MKHvK0WwLL-23" value="" style="group" vertex="1" connectable="0" parent="1">
          <mxGeometry x="630" y="350" width="90" height="70" as="geometry" />
        </mxCell>
        <mxCell id="4EuCsDZ0P0MKHvK0WwLL-24" value="RRID=04" style="text;html=1;align=center;verticalAlign=middle;whiteSpace=wrap;rounded=0;" vertex="1" parent="4EuCsDZ0P0MKHvK0WwLL-23">
          <mxGeometry width="60" height="30" as="geometry" />
        </mxCell>
        <mxCell id="4EuCsDZ0P0MKHvK0WwLL-25" value="&lt;font style=&quot;font-size: 14px;&quot;&gt;恶意设备&lt;/font&gt;" style="rounded=1;whiteSpace=wrap;html=1;fillColor=#e1d5e7;strokeColor=#9673a6;" vertex="1" parent="4EuCsDZ0P0MKHvK0WwLL-23">
          <mxGeometry y="30" width="90" height="40" as="geometry" />
        </mxCell>
        <mxCell id="4EuCsDZ0P0MKHvK0WwLL-26" value="&lt;font style=&quot;font-size: 18px;&quot;&gt;DMA&lt;/font&gt;" style="rounded=1;whiteSpace=wrap;html=1;fillColor=#dae8fc;strokeColor=#6c8ebf;" vertex="1" parent="1">
          <mxGeometry x="390" y="460" width="330" height="60" as="geometry" />
        </mxCell>
        <mxCell id="4EuCsDZ0P0MKHvK0WwLL-27" style="edgeStyle=orthogonalEdgeStyle;rounded=0;orthogonalLoop=1;jettySize=auto;html=1;entryX=0.136;entryY=0;entryDx=0;entryDy=0;entryPerimeter=0;" edge="1" parent="1" source="4EuCsDZ0P0MKHvK0WwLL-18" target="4EuCsDZ0P0MKHvK0WwLL-26">
          <mxGeometry relative="1" as="geometry" />
        </mxCell>
        <mxCell id="4EuCsDZ0P0MKHvK0WwLL-28" style="edgeStyle=orthogonalEdgeStyle;rounded=0;orthogonalLoop=1;jettySize=auto;html=1;" edge="1" parent="1" source="4EuCsDZ0P0MKHvK0WwLL-22" target="4EuCsDZ0P0MKHvK0WwLL-26">
          <mxGeometry relative="1" as="geometry" />
        </mxCell>
        <mxCell id="4EuCsDZ0P0MKHvK0WwLL-29" style="edgeStyle=orthogonalEdgeStyle;rounded=0;orthogonalLoop=1;jettySize=auto;html=1;" edge="1" parent="1" source="4EuCsDZ0P0MKHvK0WwLL-25">
          <mxGeometry relative="1" as="geometry">
            <mxPoint x="675" y="460" as="targetPoint" />
          </mxGeometry>
        </mxCell>
        <mxCell id="4EuCsDZ0P0MKHvK0WwLL-33" style="edgeStyle=orthogonalEdgeStyle;rounded=0;orthogonalLoop=1;jettySize=auto;html=1;" edge="1" parent="1">
          <mxGeometry relative="1" as="geometry">
            <mxPoint x="260" y="564" as="targetPoint" />
            <mxPoint x="260" y="500" as="sourcePoint" />
          </mxGeometry>
        </mxCell>
        <mxCell id="4EuCsDZ0P0MKHvK0WwLL-35" style="edgeStyle=orthogonalEdgeStyle;rounded=0;orthogonalLoop=1;jettySize=auto;html=1;" edge="1" parent="1">
          <mxGeometry relative="1" as="geometry">
            <mxPoint x="560" y="564" as="targetPoint" />
            <mxPoint x="560" y="520" as="sourcePoint" />
          </mxGeometry>
        </mxCell>
        <mxCell id="4EuCsDZ0P0MKHvK0WwLL-37" value="" style="group" vertex="1" connectable="0" parent="1">
          <mxGeometry x="20" y="530" width="720" height="40" as="geometry" />
        </mxCell>
        <mxCell id="4EuCsDZ0P0MKHvK0WwLL-30" value="" style="shape=flexArrow;endArrow=classic;startArrow=classic;html=1;rounded=0;fillColor=#00994D;strokeColor=#00994D;endSize=6;strokeWidth=1;" edge="1" parent="4EuCsDZ0P0MKHvK0WwLL-37">
          <mxGeometry width="100" height="100" relative="1" as="geometry">
            <mxPoint y="40" as="sourcePoint" />
            <mxPoint x="720" y="40" as="targetPoint" />
          </mxGeometry>
        </mxCell>
        <mxCell id="4EuCsDZ0P0MKHvK0WwLL-36" value="系统总线" style="text;html=1;align=center;verticalAlign=middle;whiteSpace=wrap;rounded=0;" vertex="1" parent="4EuCsDZ0P0MKHvK0WwLL-37">
          <mxGeometry x="640" width="60" height="30" as="geometry" />
        </mxCell>
        <mxCell id="4EuCsDZ0P0MKHvK0WwLL-41" style="edgeStyle=orthogonalEdgeStyle;rounded=0;orthogonalLoop=1;jettySize=auto;html=1;startArrow=classic;startFill=1;endArrow=none;" edge="1" parent="1" source="4EuCsDZ0P0MKHvK0WwLL-39">
          <mxGeometry relative="1" as="geometry">
            <mxPoint x="380" y="575" as="targetPoint" />
          </mxGeometry>
        </mxCell>
        <mxCell id="4EuCsDZ0P0MKHvK0WwLL-45" style="edgeStyle=orthogonalEdgeStyle;rounded=0;orthogonalLoop=1;jettySize=auto;html=1;exitX=0.25;exitY=1;exitDx=0;exitDy=0;entryX=0.25;entryY=0;entryDx=0;entryDy=0;strokeColor=#009900;" edge="1" parent="1" source="4EuCsDZ0P0MKHvK0WwLL-39" target="4EuCsDZ0P0MKHvK0WwLL-42">
          <mxGeometry relative="1" as="geometry" />
        </mxCell>
        <mxCell id="4EuCsDZ0P0MKHvK0WwLL-46" value="RRID=01&lt;br&gt;允许访问" style="edgeLabel;html=1;align=center;verticalAlign=middle;resizable=0;points=[];" vertex="1" connectable="0" parent="4EuCsDZ0P0MKHvK0WwLL-45">
          <mxGeometry x="-0.0996" y="1" relative="1" as="geometry">
            <mxPoint x="-36" y="-2" as="offset" />
          </mxGeometry>
        </mxCell>
        <mxCell id="4EuCsDZ0P0MKHvK0WwLL-47" value="RRID=02&lt;br&gt;允许访问" style="edgeStyle=orthogonalEdgeStyle;rounded=0;orthogonalLoop=1;jettySize=auto;html=1;entryX=0.5;entryY=0;entryDx=0;entryDy=0;strokeColor=#009900;" edge="1" parent="1" source="4EuCsDZ0P0MKHvK0WwLL-39" target="4EuCsDZ0P0MKHvK0WwLL-42">
          <mxGeometry x="-0.1515" y="-30" relative="1" as="geometry">
            <Array as="points">
              <mxPoint x="380" y="710" />
              <mxPoint x="380" y="710" />
            </Array>
            <mxPoint as="offset" />
          </mxGeometry>
        </mxCell>
        <mxCell id="4EuCsDZ0P0MKHvK0WwLL-49" style="edgeStyle=orthogonalEdgeStyle;rounded=0;orthogonalLoop=1;jettySize=auto;html=1;exitX=0.75;exitY=1;exitDx=0;exitDy=0;entryX=0.75;entryY=0;entryDx=0;entryDy=0;dashed=1;strokeColor=#CC0000;" edge="1" parent="1" source="4EuCsDZ0P0MKHvK0WwLL-39" target="4EuCsDZ0P0MKHvK0WwLL-42">
          <mxGeometry relative="1" as="geometry">
            <Array as="points">
              <mxPoint x="465" y="710" />
              <mxPoint x="465" y="710" />
            </Array>
          </mxGeometry>
        </mxCell>
        <mxCell id="4EuCsDZ0P0MKHvK0WwLL-51" value="RRID=04&lt;br&gt;禁止访问" style="edgeLabel;html=1;align=center;verticalAlign=middle;resizable=0;points=[];" vertex="1" connectable="0" parent="4EuCsDZ0P0MKHvK0WwLL-49">
          <mxGeometry x="-0.2727" relative="1" as="geometry">
            <mxPoint x="-30" y="5" as="offset" />
          </mxGeometry>
        </mxCell>
        <mxCell id="4EuCsDZ0P0MKHvK0WwLL-39" value="&lt;font style=&quot;font-size: 18px;&quot;&gt;IOPMP&lt;/font&gt;" style="rounded=1;whiteSpace=wrap;html=1;fillColor=#f8cecc;strokeColor=#b85450;" vertex="1" parent="1">
          <mxGeometry x="210" y="620" width="340" height="60" as="geometry" />
        </mxCell>
        <mxCell id="4EuCsDZ0P0MKHvK0WwLL-42" value="&lt;font style=&quot;font-size: 18px;&quot;&gt;Memory&lt;/font&gt;" style="rounded=1;whiteSpace=wrap;html=1;fillColor=#ffe6cc;strokeColor=#d79b00;" vertex="1" parent="1">
          <mxGeometry x="210" y="750" width="340" height="60" as="geometry" />
        </mxCell>
      </root>
    </mxGraphModel>
  </diagram>
</mxfile>
